<svg width="32" height="32" viewBox="0 0 32 32" fill="none" xmlns="http://www.w3.org/2000/svg">
  <rect width="32" height="32" rx="8" fill="#21C4B2"/>
  <path d="M16 8C12.13 8 9 11.13 9 15C9 17.7 10.58 20.01 12.93 21.04C13.9 19.13 15.84 17.85 18.08 17.85C18.43 17.85 18.76 17.89 19.09 17.96C18.4 16.23 18 14.2 18 12C18 10.67 21.33 9.33 21.33 9.33C21.33 9.33 20 13.33 20 15.33C20 16.25 20.2 17.09 20.56 17.8C22.41 16.66 23.67 14.94 23.67 12.94C23.67 10.46 21.66 8.44 19.17 8.44C18.52 8.44 17.9 8.57 17.33 8.8C16.91 8.3 16.48 8 16 8Z" fill="white"/>
</svg>